# xmcd CD database file
# Generated: Mon Mar 3 04:25:12 2003 by KSCD
# 
# Track frame offsets:
#       150
#       23242
#       39675
#       54895
#       71137
#       87800
#       100465
#       117985
#       140405
#       154820
#       172417
#       188842
#       213335
#       226240
#       246575
#       262037
#       284177
#       298837
#
# Disc length: 4244 seconds
#
# Revision: 1
# Processed by: cddbd v1.4PL0 Copyright (c) Steve Scherf et al.
# Submitted via: Kscd 1.3.3
#
DISCID=20109212
DTITLE=celin dion - My dream
DYEAR=1900
DGENRE=
TTITLE0=My dream
TTITLE1=
TTITLE2=
TTITLE3=
TTITLE4=
TTITLE5=
TTITLE6=
TTITLE7=
TTITLE8=
TTITLE9=
TTITLE10=
TTITLE11=
TTITLE12=
TTITLE13=
TTITLE14=
TTITLE15=
TTITLE16=
TTITLE17=
EXTD=
EXTT0=
EXTT1=
EXTT2=
EXTT3=
EXTT4=
EXTT5=
EXTT6=
EXTT7=
EXTT8=
EXTT9=
EXTT10=
EXTT11=
EXTT12=
EXTT13=
EXTT14=
EXTT15=
EXTT16=
EXTT17=
PLAYORDER=
